<svg width="120" height="120" viewBox="0 0 120 120" fill="none" xmlns="http://www.w3.org/2000/svg">
  <defs>
    <linearGradient id="logoGradient" x1="0%" y1="0%" x2="100%" y2="100%">
      <stop offset="0%" stop-color="#22c55e" />
      <stop offset="50%" stop-color="#16a34a" />
      <stop offset="100%" stop-color="#15803d" />
    </linearGradient>
    <filter id="logoShadow">
      <feDropShadow dx="0" dy="8" stdDeviation="12" flood-opacity="0.4"/>
    </filter>
  </defs>
  
  <circle cx="60" cy="60" r="58" fill="url(#logoGradient)" filter="url(#logoShadow)"/>
  
  <path d="M 35 25 L 35 95 L 70 95 Q 85 95 85 80 L 85 70 Q 85 60 75 60 L 85 60 Q 95 60 95 50 L 95 40 Q 95 25 80 25 Z M 50 45 L 70 45 Q 75 45 75 50 L 75 55 Q 75 60 70 60 L 50 60 Z M 50 65 L 75 65 Q 80 65 80 70 L 80 75 Q 80 80 75 80 L 50 80 Z" fill="white"/>
</svg>

